# xmcd
#
# Track frame offsets:
#	150
#	16880
#	37470
#	53859
#	70381
#	91907
#	111666
#	126974
#	143134
#	161243
#	175495
#
# Disc length: 2531 seconds
#
# Revision: 1
# Processed by: cddbd v1.5.2PL0 Copyright (c) Steve Scherf et al.
# Submitted via: audiograbber 1.83.01
#
DISCID=a909e10b
DTITLE=Toby Keith - That Don't Make Me A Bad Guy
DYEAR=2008
DGENRE=Country
TTITLE0=That Don't Make Me A Bad Guy
TTITLE1=Creole Woman
TTITLE2=God Love Her
TTITLE3=Lost You Anyway
TTITLE4=Missing Me Some You
TTITLE5=Hurt A Lot Worse When You Go
TTITLE6=Time That It Would Take
TTITLE7=You Already Love Me
TTITLE8=She Never Cried In Front Of Me
TTITLE9=Cabo San Lucas
TTITLE10=I Got It For You Girl
EXTD=
EXTT0=
EXTT1=
EXTT2=
EXTT3=
EXTT4=
EXTT5=
EXTT6=
EXTT7=
EXTT8=
EXTT9=
EXTT10=
PLAYORDER=
